<svg aria-hidden="true" style="width:0;height:0;position:absolute;overflow:hidden" xmlns="http://www.w3.org/2000/svg"><defs><symbol id="icon-arrow-left" viewBox="0 0 32 32"><path stroke-linejoin="round" stroke-linecap="round" stroke-width="2.666" d="M25.334 16H6.666M16 25.334 6.666 16 16 6.666"/></symbol><symbol id="icon-arrow-right" viewBox="0 0 32 32"><path stroke-linejoin="round" stroke-linecap="round" stroke-width="2.666" d="M6.666 16h18.668M16 25.334 25.334 16 16 6.666"/></symbol><symbol id="icon-close" viewBox="0 0 32 32"><path stroke-width="2.133" d="m8.533 8.533 14.933 14.933m-14.933.001L23.466 8.534"/></symbol><symbol id="icon-film" viewBox="0 0 32 32"><path d="M10.667 22.667v4h10.667v-9.333H10.667v5.333zM8 20v-2.667H5.333v-2.667H8v-2.667H5.333v8H8zm0 2.667H5.333V24A2.667 2.667 0 0 0 8 26.667v-4zM26.667 20v-8H24v2.667h2.667v2.667H24v2.667h2.667zm0 2.667H24v4A2.667 2.667 0 0 0 26.667 24v-1.333zM21.333 12V5.333H10.666v9.333h10.667v-2.667zm5.334-2.667V8A2.667 2.667 0 0 0 24 5.333v4h2.667zM8 9.333v-4A2.667 2.667 0 0 0 5.333 8v1.333H8zm0-6.666h16A5.333 5.333 0 0 1 29.333 8v16A5.333 5.333 0 0 1 24 29.333H8A5.333 5.333 0 0 1 2.667 24V8A5.333 5.333 0 0 1 8 2.667z"/></symbol><symbol id="icon-heart" viewBox="0 0 32 32"><path d="M17.026 8.94C12.718 2.692 5.334 5.204 5.334 11.577s12.308 15.09 12.308 15.09 11.692-9.066 11.692-15.09c0-6.024-6.769-8.885-11.077-2.637l-.615.499-.615-.499z"/></symbol><symbol id="icon-search" viewBox="0 0 32 32"><path d="M28.391 30.276a1.333 1.333 0 1 0 1.886-1.886l-1.886 1.886zm-5.724-16.943a9.333 9.333 0 0 1-9.333 9.333v2.667c6.627 0 12-5.373 12-12h-2.667zm-9.334 9.334A9.333 9.333 0 0 1 4 13.334H1.333c0 6.627 5.373 12 12 12v-2.667zM4 13.333A9.333 9.333 0 0 1 13.333 4V1.333c-6.627 0-12 5.373-12 12H4zM13.333 4a9.333 9.333 0 0 1 9.333 9.333h2.667c0-6.627-5.373-12-12-12V4zm6.391 17.609 8.667 8.667 1.886-1.886-8.667-8.667-1.886 1.886z"/></symbol><symbol id="pagination-arrow" viewBox="0 0 32 32"><path d="m12.586 27.414-10-10a2 2 0 0 1 0-2.828l10-10a2 2 0 1 1 2.828 2.828L8.828 14H28a2 2 0 1 1 0 4H8.828l6.586 6.586c.39.39.586.902.586 1.414s-.195 1.024-.586 1.414a2 2 0 0 1-2.828 0z"/></symbol></defs></svg>