<svg aria-hidden="true" style="width:0;height:0;position:absolute;overflow:hidden" xmlns="http://www.w3.org/2000/svg"><defs><symbol id="icon-arrow-left" viewBox="0 0 32 32"><path stroke-linejoin="round" stroke-linecap="round" stroke-width="2.666" d="M25.334 16H6.666M16 25.334 6.666 16 16 6.666"/></symbol><symbol id="icon-arrow-right" viewBox="0 0 32 32"><path stroke-linejoin="round" stroke-linecap="round" stroke-width="2.666" d="M6.666 16h18.668M16 25.334 25.334 16 16 6.666"/></symbol><symbol id="icon-close" viewBox="0 0 32 32"><path d="M25.333 5.333q.573 0 .953.38t.38.953q0 .563-.385.948l-8.396 8.385 8.396 8.385q.385.385.385.948 0 .573-.38.953t-.953.38q-.563 0-.948-.385L16 17.884 7.615 26.28q-.385.385-.948.385-.573 0-.953-.38t-.38-.953q0-.563.385-.948l8.396-8.385-8.396-8.385q-.385-.385-.385-.948 0-.573.38-.953t.953-.38q.563 0 .948.385L16 14.114l8.385-8.396q.385-.385.948-.385z"/></symbol><symbol id="icon-film" viewBox="0 0 32 32"><path d="M10.667 22.667v4h10.667v-9.333H10.667v5.333zM8 20v-2.667H5.333v-2.667H8v-2.667H5.333v8H8zm0 2.667H5.333V24A2.667 2.667 0 0 0 8 26.667v-4zM26.667 20v-8H24v2.667h2.667v2.667H24v2.667h2.667zm0 2.667H24v4A2.667 2.667 0 0 0 26.667 24v-1.333zM21.333 12V5.333H10.666v9.333h10.667v-2.667zm5.334-2.667V8A2.667 2.667 0 0 0 24 5.333v4h2.667zM8 9.333v-4A2.667 2.667 0 0 0 5.333 8v1.333H8zm0-6.666h16A5.333 5.333 0 0 1 29.333 8v16A5.333 5.333 0 0 1 24 29.333H8A5.333 5.333 0 0 1 2.667 24V8A5.333 5.333 0 0 1 8 2.667z"/></symbol><symbol id="icon-heart" viewBox="0 0 32 32"><path d="M17.026 8.94C12.718 2.692 5.334 5.204 5.334 11.577s12.308 15.09 12.308 15.09 11.692-9.066 11.692-15.09c0-6.024-6.769-8.885-11.077-2.637l-.615.499-.615-.499z"/></symbol><symbol id="icon-search" viewBox="0 0 32 32"><path d="M28.391 30.276a1.333 1.333 0 1 0 1.886-1.886l-1.886 1.886zm-5.724-16.943a9.333 9.333 0 0 1-9.333 9.333v2.667c6.627 0 12-5.373 12-12h-2.667zm-9.334 9.334A9.333 9.333 0 0 1 4 13.334H1.333c0 6.627 5.373 12 12 12v-2.667zM4 13.333A9.333 9.333 0 0 1 13.333 4V1.333c-6.627 0-12 5.373-12 12H4zM13.333 4a9.333 9.333 0 0 1 9.333 9.333h2.667c0-6.627-5.373-12-12-12V4zm6.391 17.609 8.667 8.667 1.886-1.886-8.667-8.667-1.886 1.886z"/></symbol><symbol id="pagination-arrow" viewBox="0 0 32 32"><path d="m12.586 27.414-10-10a2 2 0 0 1 0-2.828l10-10a2 2 0 1 1 2.828 2.828L8.828 14H28a2 2 0 1 1 0 4H8.828l6.586 6.586c.39.39.586.902.586 1.414s-.195 1.024-.586 1.414a2 2 0 0 1-2.828 0z"/></symbol><symbol id="icon-sun" viewBox="0 0 32 32"><path d="M15.982 24.061c-4.455 0-8.079-3.624-8.079-8.079s3.624-8.079 8.079-8.079 8.079 3.624 8.079 8.079-3.624 8.079-8.079 8.079zM13.752 6.361a.352.352 0 0 1-.326-.484l2.23-5.483a.351.351 0 0 1 .65 0l2.23 5.483a.352.352 0 0 1-.401.476 10.135 10.135 0 0 0-4.31 0 .316.316 0 0 1-.074.008zM15.982 31.788a.349.349 0 0 1-.325-.219l-2.23-5.483a.352.352 0 0 1 .401-.476c1.42.31 2.889.31 4.31 0a.353.353 0 0 1 .401.476l-2.23 5.483a.353.353 0 0 1-.326.219zM6.01 18.563a.334.334 0 0 1-.132-.026l-5.483-2.23a.353.353 0 0 1 0-.651l5.483-2.23a.353.353 0 0 1 .476.401c-.155.71-.234 1.435-.234 2.155s.079 1.445.234 2.155a.351.351 0 0 1-.344.427zM25.954 18.563a.35.35 0 0 1-.343-.427 10.128 10.128 0 0 0 0-4.31.351.351 0 0 1 .476-.401l5.483 2.23a.351.351 0 0 1 0 .65l-5.483 2.23a.36.36 0 0 1-.132.026zM7.354 10.859l-.03-.001a.352.352 0 0 1-.294-.213l-2.3-5.454a.35.35 0 0 1 .46-.46l5.454 2.3a.351.351 0 0 1 .053.619c-.612.393-1.18.85-1.689 1.359s-.966 1.077-1.359 1.689a.352.352 0 0 1-.295.162zM26.91 27.261a.367.367 0 0 1-.137-.027l-5.454-2.3a.352.352 0 0 1-.053-.62 10.118 10.118 0 0 0 3.048-3.048.352.352 0 0 1 .62.053l2.3 5.454a.35.35 0 0 1-.325.488zM24.61 10.859a.353.353 0 0 1-.296-.161 10.159 10.159 0 0 0-1.359-1.689 10.15 10.15 0 0 0-1.689-1.359.35.35 0 0 1 .053-.619l5.454-2.3a.35.35 0 0 1 .461.46l-2.3 5.454a.352.352 0 0 1-.294.213l-.03.001zM5.054 27.261a.351.351 0 0 1-.323-.488l2.3-5.454a.351.351 0 0 1 .619-.053c.393.612.85 1.18 1.359 1.689.508.508 1.076.965 1.689 1.359a.352.352 0 0 1-.053.62l-5.454 2.3a.36.36 0 0 1-.137.027z"/></symbol><symbol id="icon-moon" viewBox="0 0 32 32"><path d="M12.775.331a15.892 15.892 0 0 1 3.387-.33.57.57 0 0 1 .195 1.104 10.63 10.63 0 0 0-5.458 4.849 10.619 10.619 0 0 0-1.065 7.208l.003.018a10.627 10.627 0 0 0 4.578 6.747 10.63 10.63 0 0 0 8.002 1.542l.018-.003a10.615 10.615 0 0 0 5.286-2.807 10.715 10.715 0 0 0 2.95-5.25.57.57 0 0 1 1.117.036 15.954 15.954 0 0 1-2.62 11.642 15.931 15.931 0 0 1-9.942 6.585 15.954 15.954 0 0 1-12.025-2.307 15.965 15.965 0 0 1-6.872-10.14A15.948 15.948 0 0 1 2.48 7.442 15.96 15.96 0 0 1 12.49.391h.003l.281-.06z"/></symbol></defs></svg>