<svg aria-hidden="true" style="position: absolute; width: 0; height: 0; overflow: hidden;" version="1.1" xmlns="http://www.w3.org/2000/svg" xmlns:xlink="http://www.w3.org/1999/xlink">
<defs>
<symbol id="icon-arrow-left" viewBox="0 0 32 32">
<path stroke-linejoin="round" stroke-linecap="round" stroke-miterlimit="4" stroke-width="2.666" d="M25.334 16h-18.668M16 25.334l-9.334-9.334 9.334-9.334"></path>
</symbol>
<symbol id="icon-arrow-right" viewBox="0 0 32 32">
<path stroke-linejoin="round" stroke-linecap="round" stroke-miterlimit="4" stroke-width="2.666" d="M6.666 16h18.668M16 25.334l9.334-9.334-9.334-9.334"></path>
</symbol>
<symbol id="icon-close" viewBox="0 0 32 32">
<path stroke-linejoin="miter" stroke-linecap="butt" stroke-miterlimit="4" stroke-width="2.1333" d="M8.533 8.533l14.933 14.933M8.533 23.467l14.933-14.933"></path>
</symbol>
<symbol id="icon-film" viewBox="0 0 32 32">
<path d="M10.667 22.667v4h10.667v-9.333h-10.667v5.333zM8 20v-2.667h-2.667v-2.667h2.667v-2.667h-2.667v8h2.667zM8 22.667h-2.667v1.333c0 1.473 1.194 2.667 2.667 2.667v0-4zM26.667 20v-8h-2.667v2.667h2.667v2.667h-2.667v2.667h2.667zM26.667 22.667h-2.667v4c1.473 0 2.667-1.194 2.667-2.667v0-1.333zM21.333 12v-6.667h-10.667v9.333h10.667v-2.667zM26.667 9.333v-1.333c0-1.473-1.194-2.667-2.667-2.667v0 4h2.667zM8 9.333v-4c-1.473 0-2.667 1.194-2.667 2.667v0 1.333h2.667zM8 2.667h16c2.946 0 5.333 2.388 5.333 5.333v0 16c0 2.946-2.388 5.333-5.333 5.333v0h-16c-2.946 0-5.333-2.388-5.333-5.333v0-16c0-2.946 2.388-5.333 5.333-5.333v0z"></path>
</symbol>
<symbol id="icon-heart" viewBox="0 0 32 32">
<path d="M17.026 8.94c-4.308-6.248-11.692-3.736-11.692 2.637s12.308 15.090 12.308 15.090 11.692-9.066 11.692-15.090c0-6.024-6.769-8.885-11.077-2.637l-0.615 0.499-0.615-0.499z"></path>
</symbol>
<symbol id="icon-search" viewBox="0 0 32 32">
<path d="M28.391 30.276c0.521 0.521 1.365 0.521 1.886 0s0.521-1.365 0-1.886l-1.886 1.886zM22.667 13.333c0 5.155-4.179 9.333-9.333 9.333v2.667c6.627 0 12-5.373 12-12h-2.667zM13.333 22.667c-5.155 0-9.333-4.179-9.333-9.333h-2.667c0 6.627 5.373 12 12 12v-2.667zM4 13.333c0-5.155 4.179-9.333 9.333-9.333v-2.667c-6.627 0-12 5.373-12 12h2.667zM13.333 4c5.155 0 9.333 4.179 9.333 9.333h2.667c0-6.627-5.373-12-12-12v2.667zM19.724 21.609l8.667 8.667 1.886-1.886-8.667-8.667-1.886 1.886z"></path>
</symbol>
</defs>
</svg>
