<svg aria-hidden="true" style="position: absolute; width: 0; height: 0; overflow: hidden;" version="1.1"
  xmlns="http://www.w3.org/2000/svg"
  xmlns:xlink="http://www.w3.org/1999/xlink">
  <defs>
    <symbol id="icon-arrow-left" viewBox="0 0 32 32">
      <path stroke-linejoin="round" stroke-linecap="round" stroke-miterlimit="4" stroke-width="2.666" d="M25.334 16h-18.668M16 25.334l-9.334-9.334 9.334-9.334"></path>
    </symbol>
    <symbol id="icon-arrow-right" viewBox="0 0 32 32">
      <path stroke-linejoin="round" stroke-linecap="round" stroke-miterlimit="4" stroke-width="2.666" d="M6.666 16h18.668M16 25.334l9.334-9.334-9.334-9.334"></path>
    </symbol>
    <symbol id="icon-close" viewBox="0 0 32 32">
      <path d="M25.333 5.333q0.573 0 0.953 0.38t0.38 0.953q0 0.563-0.385 0.948l-8.396 8.385 8.396 8.385q0.385 0.385 0.385 0.948 0 0.573-0.38 0.953t-0.953 0.38q-0.563 0-0.948-0.385l-8.385-8.396-8.385 8.396q-0.385 0.385-0.948 0.385-0.573 0-0.953-0.38t-0.38-0.953q0-0.563 0.385-0.948l8.396-8.385-8.396-8.385q-0.385-0.385-0.385-0.948 0-0.573 0.38-0.953t0.953-0.38q0.563 0 0.948 0.385l8.385 8.396 8.385-8.396q0.385-0.385 0.948-0.385z"></path>
    </symbol>
    <symbol id="icon-film" viewBox="0 0 32 32">
      <path d="M10.667 22.667v4h10.667v-9.333h-10.667v5.333zM8 20v-2.667h-2.667v-2.667h2.667v-2.667h-2.667v8h2.667zM8 22.667h-2.667v1.333c0 1.473 1.194 2.667 2.667 2.667v0-4zM26.667 20v-8h-2.667v2.667h2.667v2.667h-2.667v2.667h2.667zM26.667 22.667h-2.667v4c1.473 0 2.667-1.194 2.667-2.667v0-1.333zM21.333 12v-6.667h-10.667v9.333h10.667v-2.667zM26.667 9.333v-1.333c0-1.473-1.194-2.667-2.667-2.667v0 4h2.667zM8 9.333v-4c-1.473 0-2.667 1.194-2.667 2.667v0 1.333h2.667zM8 2.667h16c2.946 0 5.333 2.388 5.333 5.333v0 16c0 2.946-2.388 5.333-5.333 5.333v0h-16c-2.946 0-5.333-2.388-5.333-5.333v0-16c0-2.946 2.388-5.333 5.333-5.333v0z"></path>
    </symbol>
    <symbol id="icon-heart" viewBox="0 0 32 32">
      <path d="M17.026 8.94c-4.308-6.248-11.692-3.736-11.692 2.637s12.308 15.090 12.308 15.090 11.692-9.066 11.692-15.090c0-6.024-6.769-8.885-11.077-2.637l-0.615 0.499-0.615-0.499z"></path>
    </symbol>
    <symbol id="icon-search" viewBox="0 0 32 32">
      <path d="M28.391 30.276c0.521 0.521 1.365 0.521 1.886 0s0.521-1.365 0-1.886l-1.886 1.886zM22.667 13.333c0 5.155-4.179 9.333-9.333 9.333v2.667c6.627 0 12-5.373 12-12h-2.667zM13.333 22.667c-5.155 0-9.333-4.179-9.333-9.333h-2.667c0 6.627 5.373 12 12 12v-2.667zM4 13.333c0-5.155 4.179-9.333 9.333-9.333v-2.667c-6.627 0-12 5.373-12 12h2.667zM13.333 4c5.155 0 9.333 4.179 9.333 9.333h2.667c0-6.627-5.373-12-12-12v2.667zM19.724 21.609l8.667 8.667 1.886-1.886-8.667-8.667-1.886 1.886z"></path>
    </symbol>
    <symbol id="pagination-arrow" viewBox="0 0 32 32">
      <path d="M12.586 27.414l-10-10c-0.781-0.781-0.781-2.047 0-2.828l10-10c0.781-0.781 2.047-0.781 2.828 0s0.781 2.047 0 2.828l-6.586 6.586h19.172c1.105 0 2 0.895 2 2s-0.895 2-2 2h-19.172l6.586 6.586c0.39 0.39 0.586 0.902 0.586 1.414s-0.195 1.024-0.586 1.414c-0.781 0.781-2.047 0.781-2.828 0z"></path>
    </symbol>
    <symbol id="icon-sun" viewBox="0 0 32 32">
<path d="M15.982 24.061c-4.455 0-8.079-3.624-8.079-8.079s3.624-8.079 8.079-8.079c4.455 0 8.079 3.624 8.079 8.079s-3.624 8.079-8.079 8.079z"></path>
<path d="M13.752 6.361c-0.103 0-0.201-0.045-0.269-0.125-0.084-0.1-0.106-0.238-0.057-0.359l2.23-5.483c0.054-0.132 0.182-0.219 0.325-0.219s0.272 0.087 0.325 0.219l2.23 5.483c0.049 0.121 0.027 0.259-0.057 0.359s-0.216 0.145-0.344 0.117c-1.421-0.309-2.89-0.309-4.31 0-0.025 0.006-0.050 0.008-0.074 0.008z"></path>
<path d="M15.982 31.788c-0.143 0-0.272-0.086-0.325-0.219l-2.23-5.483c-0.049-0.121-0.027-0.259 0.057-0.359s0.216-0.145 0.344-0.117c1.42 0.31 2.889 0.31 4.31 0 0.128-0.028 0.26 0.018 0.344 0.117s0.106 0.238 0.057 0.359l-2.23 5.483c-0.054 0.132-0.183 0.219-0.326 0.219z"></path>
<path d="M6.010 18.563c-0.045 0-0.090-0.008-0.132-0.026l-5.483-2.23c-0.132-0.054-0.219-0.183-0.219-0.326s0.087-0.272 0.219-0.325l5.483-2.23c0.12-0.049 0.259-0.027 0.359 0.057s0.145 0.216 0.117 0.344c-0.155 0.71-0.234 1.435-0.234 2.155s0.079 1.445 0.234 2.155c0.028 0.127-0.017 0.26-0.117 0.344-0.065 0.054-0.145 0.083-0.227 0.083z"></path>
<path d="M25.954 18.563c-0.081 0-0.162-0.028-0.226-0.083-0.1-0.084-0.145-0.216-0.117-0.344 0.155-0.71 0.233-1.436 0.233-2.155s-0.079-1.445-0.233-2.155c-0.028-0.127 0.017-0.26 0.117-0.344s0.237-0.106 0.359-0.057l5.483 2.23c0.132 0.054 0.219 0.182 0.219 0.325s-0.086 0.272-0.219 0.325l-5.483 2.23c-0.043 0.017-0.088 0.026-0.132 0.026z"></path>
<path d="M7.354 10.859c-0.010 0-0.020-0-0.030-0.001-0.13-0.011-0.243-0.093-0.294-0.213l-2.3-5.454c-0.056-0.132-0.026-0.284 0.075-0.385s0.254-0.13 0.385-0.075l5.454 2.3c0.12 0.051 0.202 0.164 0.213 0.293s-0.051 0.255-0.16 0.326c-0.612 0.393-1.18 0.85-1.689 1.359s-0.966 1.077-1.359 1.689c-0.065 0.101-0.177 0.162-0.295 0.162z"></path>
<path d="M26.91 27.261c-0.046 0-0.092-0.009-0.137-0.027l-5.454-2.3c-0.12-0.051-0.202-0.164-0.213-0.294s0.051-0.255 0.16-0.326c0.613-0.394 1.181-0.851 1.689-1.359v0c0.508-0.507 0.965-1.076 1.359-1.689 0.071-0.11 0.194-0.172 0.326-0.16 0.13 0.011 0.243 0.093 0.294 0.213l2.3 5.454c0.055 0.132 0.026 0.284-0.076 0.385-0.067 0.068-0.157 0.103-0.249 0.103z"></path>
<path d="M24.61 10.859c-0.119 0-0.23-0.060-0.296-0.161-0.394-0.613-0.851-1.181-1.359-1.689v0c-0.508-0.508-1.077-0.966-1.689-1.359-0.11-0.070-0.171-0.196-0.16-0.326s0.093-0.243 0.213-0.293l5.454-2.3c0.131-0.056 0.284-0.026 0.385 0.075s0.131 0.253 0.076 0.385l-2.3 5.454c-0.051 0.12-0.164 0.202-0.294 0.213-0.010 0.001-0.020 0.001-0.030 0.001z"></path>
<path d="M5.054 27.261c-0.091 0-0.181-0.036-0.248-0.103-0.101-0.101-0.131-0.253-0.075-0.385l2.3-5.454c0.051-0.12 0.164-0.202 0.293-0.213 0.13-0.015 0.255 0.051 0.326 0.16 0.393 0.612 0.85 1.18 1.359 1.689v0c0.508 0.508 1.076 0.965 1.689 1.359 0.11 0.071 0.171 0.196 0.16 0.326s-0.093 0.243-0.213 0.294l-5.454 2.3c-0.044 0.018-0.090 0.027-0.137 0.027z"></path>
</symbol>
<symbol id="icon-moon" viewBox="0 0 32 32">
<path d="M12.775 0.331c0.565-0.117 1.13-0.201 1.687-0.255 0.573-0.055 1.141-0.081 1.7-0.075 0.315 0.003 0.568 0.26 0.565 0.575-0.003 0.242-0.156 0.448-0.37 0.529-2.383 0.937-4.289 2.685-5.458 4.849-1.151 2.127-1.588 4.656-1.065 7.208l0.003 0.018c0.596 2.88 2.299 5.247 4.578 6.747 2.276 1.5 5.122 2.13 8.002 1.542l0.018-0.003c2.073-0.43 3.877-1.43 5.286-2.807 1.458-1.424 2.489-3.25 2.95-5.25 0.070-0.307 0.378-0.497 0.682-0.427 0.232 0.055 0.398 0.242 0.435 0.463 0.687 4.218-0.352 8.351-2.62 11.642-2.258 3.276-5.736 5.721-9.942 6.585-4.328 0.891-8.606-0.057-12.025-2.307-3.422-2.258-5.981-5.812-6.872-10.14-0.87-4.226 0.013-8.406 2.151-11.783 2.148-3.388 5.559-5.973 9.734-6.986 0.081-0.021 0.174-0.042 0.276-0.065h0.003l0.281-0.060z"></path>
</symbol>
  </defs>
</svg>
